<svg width="48" height="46" viewBox="0 0 48 46" fill="none" xmlns="http://www.w3.org/2000/svg">
<path d="M47 18.6H1M34.2222 1V9.8M13.7778 1V9.8M13.2667 45H34.7333C39.0271 45 41.1739 45 42.8139 44.2806C44.2565 43.6479 45.4294 42.6382 46.1644 41.3963C47 39.9845 47 38.1363 47 34.44V15.96C47 12.2637 47 10.4155 46.1644 9.00366C45.4294 7.76179 44.2565 6.75212 42.8139 6.11936C41.1739 5.4 39.0271 5.4 34.7333 5.4H13.2667C8.97293 5.4 6.82606 5.4 5.18607 6.11936C3.7435 6.75212 2.57065 7.76179 1.83562 9.00366C1 10.4155 1 12.2637 1 15.96V34.44C1 38.1363 1 39.9845 1.83562 41.3963C2.57065 42.6382 3.7435 43.6479 5.18607 44.2806C6.82606 45 8.97293 45 13.2667 45Z" stroke="white" stroke-width="2" stroke-linecap="round" stroke-linejoin="round"/>
</svg>
