<svg width="50" height="48" viewBox="0 0 50 48" fill="none" xmlns="http://www.w3.org/2000/svg">
<path d="M27.4 18.25V35.5M17.8 29.75V35.5M37 12.5V35.5M37.48 1H12.52C8.48762 1 6.47143 1 4.93127 1.94007C3.5765 2.76698 2.47504 4.08643 1.78475 5.70933C0.999998 7.55432 0.999998 9.96955 0.999998 14.8V33.2C0.999998 38.0305 0.999998 40.4457 1.78475 42.2907C2.47504 43.9136 3.5765 45.233 4.93127 46.0599C6.47143 47 8.48762 47 12.52 47H37.48C41.5124 47 43.5286 47 45.0687 46.0599C46.4235 45.233 47.525 43.9136 48.2152 42.2907C49 40.4457 49 38.0305 49 33.2V14.8C49 9.96955 49 7.55432 48.2152 5.70933C47.525 4.08643 46.4235 2.76698 45.0687 1.94007C43.5286 1 41.5124 1 37.48 1Z" stroke="white" stroke-width="2" stroke-linecap="round" stroke-linejoin="round"/>
</svg>
