<svg width="36" height="30" viewBox="0 0 36 30" fill="none" xmlns="http://www.w3.org/2000/svg">
<path d="M15.8285 4.25472C16.5303 4.16125 17.2543 4.11111 18 4.11111C26.8159 4.11111 32.6008 11.1186 34.5443 13.8906C34.7795 14.2261 34.8971 14.3939 34.9629 14.6526C35.0124 14.8469 35.0123 15.1535 34.9629 15.3478C34.897 15.6065 34.7786 15.7754 34.5417 16.1131C34.0239 16.8513 33.2344 17.8888 32.1884 19.014M8.87953 6.78452C5.15082 9.06559 2.61924 12.2315 1.45738 13.8882C1.2211 14.2251 1.10297 14.3936 1.03711 14.6523C0.987647 14.8466 0.987628 15.1531 1.03706 15.3474C1.10289 15.6062 1.22049 15.7739 1.4557 16.1094C3.39918 18.8814 9.18411 25.8889 18 25.8889C21.549 25.8889 24.6068 24.7533 27.1205 23.2155M8.87953 6.78452C8.88257 6.78266 8.88561 6.7808 8.88865 6.77895M8.87953 6.78452L2.4578 1M8.87953 6.78452L14.3367 11.7002M27.1326 23.208C27.1286 23.2105 27.1245 23.213 27.1205 23.2155M27.1205 23.2155L21.6633 18.2998M27.1205 23.2155L33.5422 29M14.3367 11.7002L21.6633 18.2998M14.3367 11.7002C13.3991 12.5447 12.8193 13.7113 12.8193 15C12.8193 17.5773 15.1388 19.6667 18 19.6667C19.4306 19.6667 20.7258 19.1443 21.6633 18.2998" stroke="#0B4A50" stroke-width="2" stroke-linecap="round" stroke-linejoin="round"/>
</svg>
