<svg width="48" height="50" viewBox="0 0 48 50" fill="none" xmlns="http://www.w3.org/2000/svg">
<path d="M29.75 22.6H12.5M18.25 32.2H12.5M35.5 13H12.5M47 12.52V37.48C47 41.5124 47 43.5286 46.0599 45.0687C45.233 46.4235 43.9136 47.525 42.2907 48.2152C40.4457 49 38.0305 49 33.2 49H14.8C9.96955 49 7.55432 49 5.70933 48.2152C4.08643 47.525 2.76698 46.4235 1.94007 45.0687C1 43.5286 1 41.5124 1 37.48V12.52C1 8.48762 1 6.47143 1.94007 4.93127C2.76698 3.5765 4.08643 2.47504 5.70933 1.78475C7.55432 1 9.96955 1 14.8 1H33.2C38.0305 1 40.4457 1 42.2907 1.78475C43.9136 2.47504 45.233 3.5765 46.0599 4.93127C47 6.47143 47 8.48762 47 12.52Z" stroke="white" stroke-width="2" stroke-linecap="round" stroke-linejoin="round"/>
</svg>
