<svg width="28" height="32" viewBox="0 0 28 32" fill="none" xmlns="http://www.w3.org/2000/svg">
<path d="M22.125 12.6667V9.33333C22.125 4.73096 18.4873 1 14 1C9.51269 1 5.875 4.73096 5.875 9.33333V12.6667M14 20.1667V23.5M8.8 31H19.2C21.9303 31 23.2954 31 24.3382 30.455C25.2555 29.9757 26.0013 29.2108 26.4687 28.27C27 27.2004 27 25.8003 27 23V20.6667C27 17.8664 27 16.4663 26.4687 15.3967C26.0013 14.4559 25.2555 13.691 24.3382 13.2116C23.2954 12.6667 21.9303 12.6667 19.2 12.6667H8.8C6.06974 12.6667 4.70462 12.6667 3.6618 13.2116C2.74451 13.691 1.99873 14.4559 1.53134 15.3967C1 16.4663 1 17.8664 1 20.6667V23C1 25.8003 1 27.2004 1.53134 28.27C1.99873 29.2108 2.74451 29.9757 3.6618 30.455C4.70462 31 6.06974 31 8.8 31Z" stroke="#0B4A50" stroke-width="2" stroke-linecap="round" stroke-linejoin="round"/>
</svg>
