<svg width="48" height="50" viewBox="0 0 48 50" fill="none" xmlns="http://www.w3.org/2000/svg">
<path d="M24 20.2857V11.2857M24 29.2857H24.0256M18.6333 42.6571L22.3644 47.6629C22.9193 48.4073 23.1967 48.7795 23.5368 48.9126C23.8347 49.0291 24.1653 49.0291 24.4632 48.9126C24.8033 48.7795 25.0807 48.4073 25.6356 47.6629L29.3667 42.6571C30.1158 41.6521 30.4904 41.1495 30.9473 40.7659C31.5565 40.2543 32.2757 39.8924 33.0479 39.709C33.6271 39.5714 34.2514 39.5714 35.5 39.5714C39.0722 39.5714 40.8583 39.5714 42.2672 38.9842C44.1458 38.2013 45.6383 36.6995 46.4164 34.8093C47 33.3916 47 31.5944 47 28V13.3429C47 9.02245 47 6.86225 46.1644 5.21207C45.4294 3.76054 44.2565 2.5804 42.8139 1.84081C41.1739 1 39.0271 1 34.7333 1H13.2667C8.97293 1 6.82606 1 5.18607 1.84081C3.7435 2.5804 2.57065 3.76054 1.83562 5.21207C1 6.86225 1 9.02245 1 13.3429V28C1 31.5944 1 33.3916 1.58359 34.8093C2.36171 36.6995 3.85421 38.2013 5.73276 38.9842C7.14167 39.5714 8.92778 39.5714 12.5 39.5714C13.7486 39.5714 14.3729 39.5714 14.9521 39.709C15.7243 39.8924 16.4435 40.2543 17.0527 40.7659C17.5096 41.1495 17.8842 41.6521 18.6333 42.6571Z" stroke="white" stroke-width="2" stroke-linecap="round" stroke-linejoin="round"/>
</svg>
