<svg width="28" height="32" viewBox="0 0 28 32" fill="none" xmlns="http://www.w3.org/2000/svg">
<path d="M27 31C27 28.6741 27 27.5111 26.7201 26.5648C26.0899 24.4341 24.4643 22.7667 22.3869 22.1204C21.4642 21.8333 20.3303 21.8333 18.0625 21.8333H9.93751C7.66971 21.8333 6.53581 21.8333 5.61314 22.1204C3.53574 22.7667 1.91007 24.4341 1.27989 26.5648C1 27.5111 1 28.6741 1 31M21.3125 8.5C21.3125 12.6421 18.0386 16 14 16C9.96142 16 6.6875 12.6421 6.6875 8.5C6.6875 4.35786 9.96142 1 14 1C18.0386 1 21.3125 4.35786 21.3125 8.5Z" stroke="#0B4A50" stroke-width="2" stroke-linecap="round" stroke-linejoin="round"/>
</svg>
